<svg width="23" height="23" viewBox="0 0 23 23" fill="none" xmlns="http://www.w3.org/2000/svg">
<path d="M17.2516 7.66667C17.7599 7.66667 18.2475 7.46473 18.607 7.10529C18.9664 6.74584 19.1684 6.25833 19.1684 5.75C19.1684 5.24167 18.9664 4.75416 18.607 4.39471C18.2475 4.03527 17.7599 3.83333 17.2516 3.83333C16.7432 3.83333 16.2556 4.03527 15.8961 4.39471C15.5367 4.75416 15.3347 5.24167 15.3347 5.75C15.3347 6.25833 15.5367 6.74584 15.8961 7.10529C16.2556 7.46473 16.7432 7.66667 17.2516 7.66667Z" fill="white"/>
<path d="M10.5426 19.1667V18.2083H12.4595C12.7136 18.2083 12.9574 18.1074 13.1372 17.9276C13.3169 17.7479 13.4179 17.5042 13.4179 17.25V15.3333H15.3347C16.9448 15.3329 18.5138 14.8257 19.8194 13.8836C21.125 12.9415 22.1009 11.6124 22.6087 10.0846C23.1165 8.55689 23.1304 6.90808 22.6485 5.37198C22.1666 3.83587 21.2133 2.49044 19.9238 1.52643C18.6343 0.562422 17.0741 0.028767 15.4643 0.00113031C13.8545 -0.0265064 12.2768 0.453277 10.955 1.37245C9.63313 2.29163 8.63423 3.60356 8.09988 5.12221C7.56553 6.64087 7.52284 8.28919 7.97788 9.83346L0.561634 17.25C0.202132 17.6094 0.000108565 18.0968 0 18.6051V21.0833C0 21.5917 0.201952 22.0792 0.561429 22.4386C0.920906 22.7981 1.40846 23 1.91684 23H5.75052C6.25889 23 6.74645 22.7981 7.10593 22.4386C7.4654 22.0792 7.66736 21.5917 7.66736 21.0833V20.125H9.5842C9.83838 20.125 10.0822 20.024 10.2619 19.8443C10.4416 19.6646 10.5426 19.4208 10.5426 19.1667ZM9.5842 7.66667C9.5842 6.52942 9.92146 5.41772 10.5533 4.47214C11.1852 3.52655 12.0833 2.78956 13.1341 2.35436C14.1849 1.91916 15.3411 1.80529 16.4566 2.02715C17.5721 2.24902 18.5967 2.79665 19.4009 3.6008C20.2052 4.40495 20.7528 5.42951 20.9747 6.5449C21.1966 7.66029 21.0827 8.81642 20.6475 9.8671C20.2123 10.9178 19.4752 11.8158 18.5295 12.4476C17.5839 13.0794 16.4721 13.4167 15.3347 13.4167H12.4595C12.2053 13.4167 11.9615 13.5176 11.7817 13.6974C11.602 13.8771 11.501 14.1208 11.501 14.375V16.2917H9.5842C9.33001 16.2917 9.08623 16.3926 8.90649 16.5724C8.72675 16.7521 8.62578 16.9958 8.62578 17.25V18.2083H6.70894C6.45475 18.2083 6.21097 18.3093 6.03123 18.489C5.85149 18.6687 5.75052 18.9125 5.75052 19.1667V21.0833H1.91684V18.6051L9.75479 10.7678C9.88604 10.6365 9.97629 10.4698 10.0146 10.2881C10.0529 10.1064 10.0375 9.91748 9.97044 9.74433C9.71443 9.08158 9.58347 8.37713 9.5842 7.66667Z" fill="white"/>
</svg>
