<svg width="23" height="23" viewBox="0 0 23 23" fill="none" xmlns="http://www.w3.org/2000/svg">
<path d="M18.0085 16.4523C14.9928 15.3537 14.0287 14.4264 14.0287 12.4408C14.0287 11.2492 15.0169 10.4769 15.3537 9.4557C15.6905 8.43445 15.8854 7.22534 16.0473 6.3458C16.2093 5.46626 16.2737 5.12607 16.3618 4.18893C16.4695 3.01936 15.6865 0 11.5 0C7.31475 0 6.5293 3.01936 6.63941 4.18893C6.7275 5.12607 6.79221 5.46629 6.95382 6.3458C7.11545 7.22532 7.3084 8.43437 7.64503 9.4557C7.98163 10.477 8.97117 11.2492 8.97117 12.4408C8.97117 14.4264 8.00712 15.3537 4.99144 16.4523C1.96479 17.5534 0 18.6392 0 19.4062V23H23V19.4062C23 18.6404 21.034 17.5546 18.0085 16.4523Z" fill="white"/>
</svg>
